<?xml version="1.0" encoding="utf-8" standalone="no"?>
<!DOCTYPE svg PUBLIC "-//W3C//DTD SVG 1.1//EN"
  "http://www.w3.org/Graphics/SVG/1.1/DTD/svg11.dtd">
<!-- Created with matplotlib (https://matplotlib.org/) -->
<svg height="345.6pt" version="1.1" viewBox="0 0 460.8 345.6" width="460.8pt" xmlns="http://www.w3.org/2000/svg" xmlns:xlink="http://www.w3.org/1999/xlink">
 <defs>
  <style type="text/css">
*{stroke-linecap:butt;stroke-linejoin:round;}
  </style>
 </defs>
 <g id="figure_1">
  <g id="patch_1">
   <path d="M 0 345.6 
L 460.8 345.6 
L 460.8 0 
L 0 0 
z
" style="fill:#ffffff;"/>
  </g>
  <g id="axes_1">
   <g id="patch_2">
    <path d="M 57.6 307.584 
L 414.72 307.584 
L 414.72 41.472 
L 57.6 41.472 
z
" style="fill:#ffffff;"/>
   </g>
   <g id="matplotlib.axis_1">
    <g id="xtick_1">
     <g id="line2d_1">
      <defs>
       <path d="M 0 0 
L 0 3.5 
" id="m768a0639e7" style="stroke:#000000;stroke-width:0.8;"/>
      </defs>
      <g>
       <use style="stroke:#000000;stroke-width:0.8;" x="73.832727" xlink:href="#m768a0639e7" y="307.584"/>
      </g>
     </g>
     <g id="text_1">
      <!-- 0 -->
      <defs>
       <path d="M 31.78125 66.40625 
Q 24.171875 66.40625 20.328125 58.90625 
Q 16.5 51.421875 16.5 36.375 
Q 16.5 21.390625 20.328125 13.890625 
Q 24.171875 6.390625 31.78125 6.390625 
Q 39.453125 6.390625 43.28125 13.890625 
Q 47.125 21.390625 47.125 36.375 
Q 47.125 51.421875 43.28125 58.90625 
Q 39.453125 66.40625 31.78125 66.40625 
z
M 31.78125 74.21875 
Q 44.046875 74.21875 50.515625 64.515625 
Q 56.984375 54.828125 56.984375 36.375 
Q 56.984375 17.96875 50.515625 8.265625 
Q 44.046875 -1.421875 31.78125 -1.421875 
Q 19.53125 -1.421875 13.0625 8.265625 
Q 6.59375 17.96875 6.59375 36.375 
Q 6.59375 54.828125 13.0625 64.515625 
Q 19.53125 74.21875 31.78125 74.21875 
z
" id="DejaVuSans-48"/>
      </defs>
      <g transform="translate(70.651477 322.182437)scale(0.1 -0.1)">
       <use xlink:href="#DejaVuSans-48"/>
      </g>
     </g>
    </g>
    <g id="xtick_2">
     <g id="line2d_2">
      <g>
       <use style="stroke:#000000;stroke-width:0.8;" x="142.61547" xlink:href="#m768a0639e7" y="307.584"/>
      </g>
     </g>
     <g id="text_2">
      <!-- 100 -->
      <defs>
       <path d="M 12.40625 8.296875 
L 28.515625 8.296875 
L 28.515625 63.921875 
L 10.984375 60.40625 
L 10.984375 69.390625 
L 28.421875 72.90625 
L 38.28125 72.90625 
L 38.28125 8.296875 
L 54.390625 8.296875 
L 54.390625 0 
L 12.40625 0 
z
" id="DejaVuSans-49"/>
      </defs>
      <g transform="translate(133.07172 322.182437)scale(0.1 -0.1)">
       <use xlink:href="#DejaVuSans-49"/>
       <use x="63.623047" xlink:href="#DejaVuSans-48"/>
       <use x="127.246094" xlink:href="#DejaVuSans-48"/>
      </g>
     </g>
    </g>
    <g id="xtick_3">
     <g id="line2d_3">
      <g>
       <use style="stroke:#000000;stroke-width:0.8;" x="211.398213" xlink:href="#m768a0639e7" y="307.584"/>
      </g>
     </g>
     <g id="text_3">
      <!-- 200 -->
      <defs>
       <path d="M 19.1875 8.296875 
L 53.609375 8.296875 
L 53.609375 0 
L 7.328125 0 
L 7.328125 8.296875 
Q 12.9375 14.109375 22.625 23.890625 
Q 32.328125 33.6875 34.8125 36.53125 
Q 39.546875 41.84375 41.421875 45.53125 
Q 43.3125 49.21875 43.3125 52.78125 
Q 43.3125 58.59375 39.234375 62.25 
Q 35.15625 65.921875 28.609375 65.921875 
Q 23.96875 65.921875 18.8125 64.3125 
Q 13.671875 62.703125 7.8125 59.421875 
L 7.8125 69.390625 
Q 13.765625 71.78125 18.9375 73 
Q 24.125 74.21875 28.421875 74.21875 
Q 39.75 74.21875 46.484375 68.546875 
Q 53.21875 62.890625 53.21875 53.421875 
Q 53.21875 48.921875 51.53125 44.890625 
Q 49.859375 40.875 45.40625 35.40625 
Q 44.1875 33.984375 37.640625 27.21875 
Q 31.109375 20.453125 19.1875 8.296875 
z
" id="DejaVuSans-50"/>
      </defs>
      <g transform="translate(201.854463 322.182437)scale(0.1 -0.1)">
       <use xlink:href="#DejaVuSans-50"/>
       <use x="63.623047" xlink:href="#DejaVuSans-48"/>
       <use x="127.246094" xlink:href="#DejaVuSans-48"/>
      </g>
     </g>
    </g>
    <g id="xtick_4">
     <g id="line2d_4">
      <g>
       <use style="stroke:#000000;stroke-width:0.8;" x="280.180955" xlink:href="#m768a0639e7" y="307.584"/>
      </g>
     </g>
     <g id="text_4">
      <!-- 300 -->
      <defs>
       <path d="M 40.578125 39.3125 
Q 47.65625 37.796875 51.625 33 
Q 55.609375 28.21875 55.609375 21.1875 
Q 55.609375 10.40625 48.1875 4.484375 
Q 40.765625 -1.421875 27.09375 -1.421875 
Q 22.515625 -1.421875 17.65625 -0.515625 
Q 12.796875 0.390625 7.625 2.203125 
L 7.625 11.71875 
Q 11.71875 9.328125 16.59375 8.109375 
Q 21.484375 6.890625 26.8125 6.890625 
Q 36.078125 6.890625 40.9375 10.546875 
Q 45.796875 14.203125 45.796875 21.1875 
Q 45.796875 27.640625 41.28125 31.265625 
Q 36.765625 34.90625 28.71875 34.90625 
L 20.21875 34.90625 
L 20.21875 43.015625 
L 29.109375 43.015625 
Q 36.375 43.015625 40.234375 45.921875 
Q 44.09375 48.828125 44.09375 54.296875 
Q 44.09375 59.90625 40.109375 62.90625 
Q 36.140625 65.921875 28.71875 65.921875 
Q 24.65625 65.921875 20.015625 65.03125 
Q 15.375 64.15625 9.8125 62.3125 
L 9.8125 71.09375 
Q 15.4375 72.65625 20.34375 73.4375 
Q 25.25 74.21875 29.59375 74.21875 
Q 40.828125 74.21875 47.359375 69.109375 
Q 53.90625 64.015625 53.90625 55.328125 
Q 53.90625 49.265625 50.4375 45.09375 
Q 46.96875 40.921875 40.578125 39.3125 
z
" id="DejaVuSans-51"/>
      </defs>
      <g transform="translate(270.637205 322.182437)scale(0.1 -0.1)">
       <use xlink:href="#DejaVuSans-51"/>
       <use x="63.623047" xlink:href="#DejaVuSans-48"/>
       <use x="127.246094" xlink:href="#DejaVuSans-48"/>
      </g>
     </g>
    </g>
    <g id="xtick_5">
     <g id="line2d_5">
      <g>
       <use style="stroke:#000000;stroke-width:0.8;" x="348.963698" xlink:href="#m768a0639e7" y="307.584"/>
      </g>
     </g>
     <g id="text_5">
      <!-- 400 -->
      <defs>
       <path d="M 37.796875 64.3125 
L 12.890625 25.390625 
L 37.796875 25.390625 
z
M 35.203125 72.90625 
L 47.609375 72.90625 
L 47.609375 25.390625 
L 58.015625 25.390625 
L 58.015625 17.1875 
L 47.609375 17.1875 
L 47.609375 0 
L 37.796875 0 
L 37.796875 17.1875 
L 4.890625 17.1875 
L 4.890625 26.703125 
z
" id="DejaVuSans-52"/>
      </defs>
      <g transform="translate(339.419948 322.182437)scale(0.1 -0.1)">
       <use xlink:href="#DejaVuSans-52"/>
       <use x="63.623047" xlink:href="#DejaVuSans-48"/>
       <use x="127.246094" xlink:href="#DejaVuSans-48"/>
      </g>
     </g>
    </g>
    <g id="text_6">
     <!-- epoch -->
     <defs>
      <path d="M 56.203125 29.59375 
L 56.203125 25.203125 
L 14.890625 25.203125 
Q 15.484375 15.921875 20.484375 11.0625 
Q 25.484375 6.203125 34.421875 6.203125 
Q 39.59375 6.203125 44.453125 7.46875 
Q 49.3125 8.734375 54.109375 11.28125 
L 54.109375 2.78125 
Q 49.265625 0.734375 44.1875 -0.34375 
Q 39.109375 -1.421875 33.890625 -1.421875 
Q 20.796875 -1.421875 13.15625 6.1875 
Q 5.515625 13.8125 5.515625 26.8125 
Q 5.515625 40.234375 12.765625 48.109375 
Q 20.015625 56 32.328125 56 
Q 43.359375 56 49.78125 48.890625 
Q 56.203125 41.796875 56.203125 29.59375 
z
M 47.21875 32.234375 
Q 47.125 39.59375 43.09375 43.984375 
Q 39.0625 48.390625 32.421875 48.390625 
Q 24.90625 48.390625 20.390625 44.140625 
Q 15.875 39.890625 15.1875 32.171875 
z
" id="DejaVuSans-101"/>
      <path d="M 18.109375 8.203125 
L 18.109375 -20.796875 
L 9.078125 -20.796875 
L 9.078125 54.6875 
L 18.109375 54.6875 
L 18.109375 46.390625 
Q 20.953125 51.265625 25.265625 53.625 
Q 29.59375 56 35.59375 56 
Q 45.5625 56 51.78125 48.09375 
Q 58.015625 40.1875 58.015625 27.296875 
Q 58.015625 14.40625 51.78125 6.484375 
Q 45.5625 -1.421875 35.59375 -1.421875 
Q 29.59375 -1.421875 25.265625 0.953125 
Q 20.953125 3.328125 18.109375 8.203125 
z
M 48.6875 27.296875 
Q 48.6875 37.203125 44.609375 42.84375 
Q 40.53125 48.484375 33.40625 48.484375 
Q 26.265625 48.484375 22.1875 42.84375 
Q 18.109375 37.203125 18.109375 27.296875 
Q 18.109375 17.390625 22.1875 11.75 
Q 26.265625 6.109375 33.40625 6.109375 
Q 40.53125 6.109375 44.609375 11.75 
Q 48.6875 17.390625 48.6875 27.296875 
z
" id="DejaVuSans-112"/>
      <path d="M 30.609375 48.390625 
Q 23.390625 48.390625 19.1875 42.75 
Q 14.984375 37.109375 14.984375 27.296875 
Q 14.984375 17.484375 19.15625 11.84375 
Q 23.34375 6.203125 30.609375 6.203125 
Q 37.796875 6.203125 41.984375 11.859375 
Q 46.1875 17.53125 46.1875 27.296875 
Q 46.1875 37.015625 41.984375 42.703125 
Q 37.796875 48.390625 30.609375 48.390625 
z
M 30.609375 56 
Q 42.328125 56 49.015625 48.375 
Q 55.71875 40.765625 55.71875 27.296875 
Q 55.71875 13.875 49.015625 6.21875 
Q 42.328125 -1.421875 30.609375 -1.421875 
Q 18.84375 -1.421875 12.171875 6.21875 
Q 5.515625 13.875 5.515625 27.296875 
Q 5.515625 40.765625 12.171875 48.375 
Q 18.84375 56 30.609375 56 
z
" id="DejaVuSans-111"/>
      <path d="M 48.78125 52.59375 
L 48.78125 44.1875 
Q 44.96875 46.296875 41.140625 47.34375 
Q 37.3125 48.390625 33.40625 48.390625 
Q 24.65625 48.390625 19.8125 42.84375 
Q 14.984375 37.3125 14.984375 27.296875 
Q 14.984375 17.28125 19.8125 11.734375 
Q 24.65625 6.203125 33.40625 6.203125 
Q 37.3125 6.203125 41.140625 7.25 
Q 44.96875 8.296875 48.78125 10.40625 
L 48.78125 2.09375 
Q 45.015625 0.34375 40.984375 -0.53125 
Q 36.96875 -1.421875 32.421875 -1.421875 
Q 20.0625 -1.421875 12.78125 6.34375 
Q 5.515625 14.109375 5.515625 27.296875 
Q 5.515625 40.671875 12.859375 48.328125 
Q 20.21875 56 33.015625 56 
Q 37.15625 56 41.109375 55.140625 
Q 45.0625 54.296875 48.78125 52.59375 
z
" id="DejaVuSans-99"/>
      <path d="M 54.890625 33.015625 
L 54.890625 0 
L 45.90625 0 
L 45.90625 32.71875 
Q 45.90625 40.484375 42.875 44.328125 
Q 39.84375 48.1875 33.796875 48.1875 
Q 26.515625 48.1875 22.3125 43.546875 
Q 18.109375 38.921875 18.109375 30.90625 
L 18.109375 0 
L 9.078125 0 
L 9.078125 75.984375 
L 18.109375 75.984375 
L 18.109375 46.1875 
Q 21.34375 51.125 25.703125 53.5625 
Q 30.078125 56 35.796875 56 
Q 45.21875 56 50.046875 50.171875 
Q 54.890625 44.34375 54.890625 33.015625 
z
" id="DejaVuSans-104"/>
     </defs>
     <g transform="translate(220.931875 335.860562)scale(0.1 -0.1)">
      <use xlink:href="#DejaVuSans-101"/>
      <use x="61.523438" xlink:href="#DejaVuSans-112"/>
      <use x="125" xlink:href="#DejaVuSans-111"/>
      <use x="186.181641" xlink:href="#DejaVuSans-99"/>
      <use x="241.162109" xlink:href="#DejaVuSans-104"/>
     </g>
    </g>
   </g>
   <g id="matplotlib.axis_2">
    <g id="ytick_1">
     <g id="line2d_6">
      <defs>
       <path d="M 0 0 
L -3.5 0 
" id="m3143b052de" style="stroke:#000000;stroke-width:0.8;"/>
      </defs>
      <g>
       <use style="stroke:#000000;stroke-width:0.8;" x="57.6" xlink:href="#m3143b052de" y="297.561996"/>
      </g>
     </g>
     <g id="text_7">
      <!-- 0 -->
      <g transform="translate(44.2375 301.361215)scale(0.1 -0.1)">
       <use xlink:href="#DejaVuSans-48"/>
      </g>
     </g>
    </g>
    <g id="ytick_2">
     <g id="line2d_7">
      <g>
       <use style="stroke:#000000;stroke-width:0.8;" x="57.6" xlink:href="#m3143b052de" y="259.21269"/>
      </g>
     </g>
     <g id="text_8">
      <!-- 50 -->
      <defs>
       <path d="M 10.796875 72.90625 
L 49.515625 72.90625 
L 49.515625 64.59375 
L 19.828125 64.59375 
L 19.828125 46.734375 
Q 21.96875 47.46875 24.109375 47.828125 
Q 26.265625 48.1875 28.421875 48.1875 
Q 40.625 48.1875 47.75 41.5 
Q 54.890625 34.8125 54.890625 23.390625 
Q 54.890625 11.625 47.5625 5.09375 
Q 40.234375 -1.421875 26.90625 -1.421875 
Q 22.3125 -1.421875 17.546875 -0.640625 
Q 12.796875 0.140625 7.71875 1.703125 
L 7.71875 11.625 
Q 12.109375 9.234375 16.796875 8.0625 
Q 21.484375 6.890625 26.703125 6.890625 
Q 35.15625 6.890625 40.078125 11.328125 
Q 45.015625 15.765625 45.015625 23.390625 
Q 45.015625 31 40.078125 35.4375 
Q 35.15625 39.890625 26.703125 39.890625 
Q 22.75 39.890625 18.8125 39.015625 
Q 14.890625 38.140625 10.796875 36.28125 
z
" id="DejaVuSans-53"/>
      </defs>
      <g transform="translate(37.875 263.011909)scale(0.1 -0.1)">
       <use xlink:href="#DejaVuSans-53"/>
       <use x="63.623047" xlink:href="#DejaVuSans-48"/>
      </g>
     </g>
    </g>
    <g id="ytick_3">
     <g id="line2d_8">
      <g>
       <use style="stroke:#000000;stroke-width:0.8;" x="57.6" xlink:href="#m3143b052de" y="220.863384"/>
      </g>
     </g>
     <g id="text_9">
      <!-- 100 -->
      <g transform="translate(31.5125 224.662603)scale(0.1 -0.1)">
       <use xlink:href="#DejaVuSans-49"/>
       <use x="63.623047" xlink:href="#DejaVuSans-48"/>
       <use x="127.246094" xlink:href="#DejaVuSans-48"/>
      </g>
     </g>
    </g>
    <g id="ytick_4">
     <g id="line2d_9">
      <g>
       <use style="stroke:#000000;stroke-width:0.8;" x="57.6" xlink:href="#m3143b052de" y="182.514078"/>
      </g>
     </g>
     <g id="text_10">
      <!-- 150 -->
      <g transform="translate(31.5125 186.313296)scale(0.1 -0.1)">
       <use xlink:href="#DejaVuSans-49"/>
       <use x="63.623047" xlink:href="#DejaVuSans-53"/>
       <use x="127.246094" xlink:href="#DejaVuSans-48"/>
      </g>
     </g>
    </g>
    <g id="ytick_5">
     <g id="line2d_10">
      <g>
       <use style="stroke:#000000;stroke-width:0.8;" x="57.6" xlink:href="#m3143b052de" y="144.164772"/>
      </g>
     </g>
     <g id="text_11">
      <!-- 200 -->
      <g transform="translate(31.5125 147.96399)scale(0.1 -0.1)">
       <use xlink:href="#DejaVuSans-50"/>
       <use x="63.623047" xlink:href="#DejaVuSans-48"/>
       <use x="127.246094" xlink:href="#DejaVuSans-48"/>
      </g>
     </g>
    </g>
    <g id="ytick_6">
     <g id="line2d_11">
      <g>
       <use style="stroke:#000000;stroke-width:0.8;" x="57.6" xlink:href="#m3143b052de" y="105.815465"/>
      </g>
     </g>
     <g id="text_12">
      <!-- 250 -->
      <g transform="translate(31.5125 109.614684)scale(0.1 -0.1)">
       <use xlink:href="#DejaVuSans-50"/>
       <use x="63.623047" xlink:href="#DejaVuSans-53"/>
       <use x="127.246094" xlink:href="#DejaVuSans-48"/>
      </g>
     </g>
    </g>
    <g id="ytick_7">
     <g id="line2d_12">
      <g>
       <use style="stroke:#000000;stroke-width:0.8;" x="57.6" xlink:href="#m3143b052de" y="67.466159"/>
      </g>
     </g>
     <g id="text_13">
      <!-- 300 -->
      <g transform="translate(31.5125 71.265378)scale(0.1 -0.1)">
       <use xlink:href="#DejaVuSans-51"/>
       <use x="63.623047" xlink:href="#DejaVuSans-48"/>
       <use x="127.246094" xlink:href="#DejaVuSans-48"/>
      </g>
     </g>
    </g>
    <g id="text_14">
     <!-- loss -->
     <defs>
      <path d="M 9.421875 75.984375 
L 18.40625 75.984375 
L 18.40625 0 
L 9.421875 0 
z
" id="DejaVuSans-108"/>
      <path d="M 44.28125 53.078125 
L 44.28125 44.578125 
Q 40.484375 46.53125 36.375 47.5 
Q 32.28125 48.484375 27.875 48.484375 
Q 21.1875 48.484375 17.84375 46.4375 
Q 14.5 44.390625 14.5 40.28125 
Q 14.5 37.15625 16.890625 35.375 
Q 19.28125 33.59375 26.515625 31.984375 
L 29.59375 31.296875 
Q 39.15625 29.25 43.1875 25.515625 
Q 47.21875 21.78125 47.21875 15.09375 
Q 47.21875 7.46875 41.1875 3.015625 
Q 35.15625 -1.421875 24.609375 -1.421875 
Q 20.21875 -1.421875 15.453125 -0.5625 
Q 10.6875 0.296875 5.421875 2 
L 5.421875 11.28125 
Q 10.40625 8.6875 15.234375 7.390625 
Q 20.0625 6.109375 24.8125 6.109375 
Q 31.15625 6.109375 34.5625 8.28125 
Q 37.984375 10.453125 37.984375 14.40625 
Q 37.984375 18.0625 35.515625 20.015625 
Q 33.0625 21.96875 24.703125 23.78125 
L 21.578125 24.515625 
Q 13.234375 26.265625 9.515625 29.90625 
Q 5.8125 33.546875 5.8125 39.890625 
Q 5.8125 47.609375 11.28125 51.796875 
Q 16.75 56 26.8125 56 
Q 31.78125 56 36.171875 55.265625 
Q 40.578125 54.546875 44.28125 53.078125 
z
" id="DejaVuSans-115"/>
     </defs>
     <g transform="translate(25.432812 184.185812)rotate(-90)scale(0.1 -0.1)">
      <use xlink:href="#DejaVuSans-108"/>
      <use x="27.783203" xlink:href="#DejaVuSans-111"/>
      <use x="88.964844" xlink:href="#DejaVuSans-115"/>
      <use x="141.064453" xlink:href="#DejaVuSans-115"/>
     </g>
    </g>
   </g>
   <g id="line2d_13">
    <path clip-path="url(#pf6744812af)" d="M 73.832727 276.646681 
L 75.208382 53.568 
L 75.89621 106.434077 
L 76.584037 239.310532 
L 77.271864 293.43122 
L 77.959692 226.522581 
L 78.647519 294.516591 
L 79.335347 202.138979 
L 80.023174 187.366456 
L 80.711002 262.830077 
L 81.398829 185.60736 
L 82.086656 179.419052 
L 82.774484 250.717856 
L 83.462311 265.226406 
L 84.150139 291.519609 
L 84.837966 159.915092 
L 85.525794 293.912358 
L 86.213621 143.443206 
L 86.901448 217.955283 
L 88.277103 281.227455 
L 88.964931 290.42344 
L 89.652758 282.156479 
L 90.340586 106.769458 
L 91.028413 140.602598 
L 91.71624 286.956278 
L 92.404068 295.488 
L 93.091895 235.479528 
L 93.779723 288.529908 
L 94.46755 264.670473 
L 95.155378 126.320465 
L 95.843205 186.947912 
L 96.531032 211.769274 
L 97.21886 110.60522 
L 97.906687 198.282842 
L 98.594515 199.080901 
L 99.282342 293.019538 
L 99.970169 187.334167 
L 100.657997 265.356236 
L 101.345824 295.299128 
L 102.033652 276.453421 
L 102.721479 289.077375 
L 103.409307 286.128126 
L 104.097134 280.736402 
L 104.784961 213.85422 
L 105.472789 294.375572 
L 106.160616 270.573248 
L 106.848444 111.1178 
L 107.536271 168.012626 
L 108.224099 290.114232 
L 108.911926 174.710752 
L 109.599753 229.121206 
L 110.287581 230.164197 
L 110.975408 283.494868 
L 111.663236 153.968901 
L 112.351063 142.802545 
L 113.038891 291.109239 
L 113.726718 288.382685 
L 114.414545 222.695942 
L 115.102373 281.241338 
L 115.7902 274.697719 
L 116.478028 237.900649 
L 117.165855 194.917892 
L 117.853683 208.736001 
L 118.54151 283.70251 
L 119.229337 285.409004 
L 119.917165 288.777199 
L 120.604992 273.50963 
L 121.29282 198.652502 
L 121.980647 259.276069 
L 122.668475 273.579084 
L 123.356302 181.706189 
L 124.044129 293.428527 
L 124.731957 244.514822 
L 125.419784 271.751077 
L 126.107612 278.650376 
L 126.795439 207.662453 
L 127.483267 282.012724 
L 128.171094 291.944808 
L 128.858921 211.981508 
L 129.546749 210.68716 
L 130.234576 192.022852 
L 130.922404 157.641168 
L 131.610231 256.707059 
L 132.298059 241.036186 
L 132.985886 282.201961 
L 133.673713 228.780992 
L 134.361541 249.284318 
L 135.049368 242.411111 
L 135.737196 228.228451 
L 136.425023 261.314494 
L 137.112851 260.781125 
L 137.800678 280.200443 
L 138.488505 246.198351 
L 139.176333 162.873646 
L 139.86416 286.85809 
L 140.551988 249.085403 
L 141.239815 284.622865 
L 141.927643 257.045079 
L 142.61547 270.009508 
L 143.303297 250.31365 
L 143.991125 261.058676 
L 144.678952 256.198259 
L 145.36678 243.62925 
L 146.054607 258.712002 
L 146.742435 259.310008 
L 147.430262 240.132384 
L 148.118089 254.59865 
L 148.805917 213.829216 
L 149.493744 254.839354 
L 150.181572 273.063534 
L 150.869399 267.986673 
L 151.557227 235.061293 
L 152.245054 238.522452 
L 152.932881 224.110081 
L 153.620709 256.23162 
L 154.308536 260.277053 
L 154.996364 253.277254 
L 155.684191 282.62653 
L 156.372018 248.827845 
L 157.059846 280.591983 
L 157.747673 222.122154 
L 158.435501 242.839072 
L 159.123328 272.647628 
L 159.811156 258.79747 
L 160.498983 259.669926 
L 161.18681 249.767516 
L 161.874638 265.417752 
L 162.562465 257.27365 
L 163.250293 242.013053 
L 163.93812 247.844851 
L 164.625948 269.709707 
L 165.313775 259.888431 
L 166.001602 283.229873 
L 166.68943 265.967094 
L 167.377257 269.426957 
L 168.065085 259.384211 
L 168.752912 270.649083 
L 169.44074 253.579268 
L 170.128567 281.847436 
L 170.816394 277.690503 
L 171.504222 260.412497 
L 172.192049 239.363234 
L 172.879877 280.254097 
L 173.567704 271.503169 
L 174.255532 279.402502 
L 174.943359 260.222795 
L 175.631186 263.354537 
L 176.319014 273.286487 
L 177.006841 266.667133 
L 177.694669 268.641741 
L 178.382496 268.34841 
L 179.070324 260.87606 
L 180.445978 251.461028 
L 181.133806 263.837715 
L 181.821633 256.701448 
L 182.509461 279.621163 
L 183.197288 262.308241 
L 183.885116 252.658209 
L 184.572943 267.968888 
L 185.948598 241.677238 
L 186.636425 262.189625 
L 187.324253 264.357556 
L 188.01208 263.360641 
L 188.699908 262.041605 
L 189.387735 264.323984 
L 190.075562 274.014408 
L 190.76339 258.149423 
L 191.451217 270.021352 
L 192.139045 242.453169 
L 192.826872 259.776308 
L 193.5147 273.195516 
L 194.202527 260.226683 
L 194.890354 255.11517 
L 195.578182 254.999808 
L 196.266009 267.53794 
L 196.953837 267.753392 
L 197.641664 265.757033 
L 198.329492 269.34681 
L 199.017319 267.027211 
L 199.705146 254.684358 
L 200.392974 268.725562 
L 201.080801 272.337017 
L 201.768629 261.843649 
L 203.144284 275.56567 
L 203.832111 252.066886 
L 204.519938 267.395313 
L 205.207766 257.188258 
L 205.895593 265.613606 
L 206.583421 262.287851 
L 207.271248 265.764465 
L 207.959076 259.616893 
L 208.646903 269.921063 
L 209.33473 267.367807 
L 210.022558 272.153545 
L 210.710385 256.390741 
L 211.398213 252.424119 
L 212.08604 264.245201 
L 212.773867 257.443602 
L 213.461695 266.894725 
L 214.149522 260.728694 
L 214.83735 263.955068 
L 215.525177 265.560128 
L 216.213005 264.44644 
L 216.900832 266.736425 
L 217.588659 263.1976 
L 218.276487 268.10922 
L 218.964314 263.692525 
L 219.652142 271.097706 
L 220.339969 263.846202 
L 221.027797 274.32054 
L 221.715624 263.722635 
L 222.403451 270.345663 
L 223.091279 270.596461 
L 223.779106 265.314939 
L 224.466934 266.485732 
L 225.154761 271.772387 
L 225.842589 269.092928 
L 226.530416 271.963547 
L 227.218243 281.33116 
L 227.906071 262.483576 
L 228.593898 255.035333 
L 229.281726 262.338943 
L 229.969553 255.187087 
L 230.657381 261.251449 
L 232.033035 269.767739 
L 232.720863 256.068898 
L 233.40869 273.044573 
L 234.096518 264.380333 
L 234.784345 268.334728 
L 235.472173 260.066891 
L 236.16 247.252136 
L 236.847827 258.56259 
L 237.535655 262.811659 
L 238.223482 257.932241 
L 238.91131 271.254389 
L 239.599137 265.445568 
L 240.286965 274.060121 
L 240.974792 268.640473 
L 241.662619 265.699009 
L 242.350447 264.278523 
L 243.038274 269.416212 
L 243.726102 263.65872 
L 244.413929 265.044213 
L 245.101757 270.457791 
L 245.789584 268.971827 
L 246.477411 255.852503 
L 247.165239 250.308389 
L 247.853066 243.134723 
L 248.540894 269.63404 
L 249.916549 267.0755 
L 250.604376 260.888984 
L 251.292203 276.934473 
L 251.980031 266.405987 
L 252.667858 277.935748 
L 254.043513 250.791588 
L 254.731341 240.746511 
L 255.419168 253.527547 
L 256.106995 258.397328 
L 256.794823 265.219927 
L 257.48265 260.828106 
L 258.170478 260.594515 
L 258.858305 257.930999 
L 259.546133 258.482783 
L 260.23396 264.988435 
L 260.921787 261.884875 
L 261.609615 267.919115 
L 262.297442 263.972797 
L 262.98527 264.030169 
L 263.673097 267.224291 
L 264.360924 259.015426 
L 265.048752 257.48628 
L 265.736579 257.994638 
L 266.424407 263.158982 
L 267.112234 261.009281 
L 267.800062 260.859518 
L 268.487889 255.554194 
L 269.175716 267.753717 
L 269.863544 267.538225 
L 270.551371 266.818003 
L 271.239199 266.999182 
L 271.927026 262.789345 
L 272.614854 257.799416 
L 273.302681 268.595786 
L 273.990508 259.970037 
L 274.678336 267.841333 
L 275.366163 263.758633 
L 276.053991 260.713083 
L 276.741818 271.143957 
L 277.429646 260.949806 
L 278.117473 262.61367 
L 278.8053 267.907408 
L 279.493128 258.936191 
L 280.180955 265.579404 
L 280.868783 258.359965 
L 281.55661 267.682213 
L 282.244438 256.338856 
L 282.932265 262.799299 
L 283.620092 266.464798 
L 284.30792 261.431976 
L 284.995747 254.211219 
L 286.371402 270.513918 
L 287.05923 269.640193 
L 287.747057 262.47085 
L 288.434884 269.601308 
L 289.122712 258.647614 
L 289.810539 264.197848 
L 290.498367 263.639495 
L 291.186194 262.381623 
L 291.874022 270.172641 
L 292.561849 266.048771 
L 293.249676 260.72299 
L 293.937504 265.390617 
L 294.625331 272.590358 
L 295.313159 262.595647 
L 296.000986 266.312797 
L 296.688814 260.571382 
L 297.376641 270.277863 
L 298.064468 253.975818 
L 298.752296 253.203771 
L 299.440123 276.476883 
L 300.127951 261.476428 
L 300.815778 266.199515 
L 301.503606 262.141475 
L 302.191433 262.272363 
L 302.87926 267.182587 
L 303.567088 262.76627 
L 304.254915 260.298644 
L 304.942743 262.765235 
L 305.63057 267.515056 
L 306.318398 270.383946 
L 307.006225 255.385159 
L 307.694052 267.746729 
L 308.38188 260.18517 
L 309.069707 265.504562 
L 309.757535 268.3931 
L 310.445362 272.50614 
L 311.13319 274.231694 
L 311.821017 268.781565 
L 312.508844 255.616313 
L 313.196672 266.680791 
L 313.884499 255.844571 
L 314.572327 267.390422 
L 315.260154 269.539712 
L 315.947982 264.092634 
L 316.635809 261.292546 
L 317.323636 262.407111 
L 318.011464 270.121459 
L 318.699291 261.046714 
L 319.387119 266.041167 
L 320.074946 257.996038 
L 320.762773 270.155089 
L 321.450601 265.717819 
L 322.138428 273.044183 
L 322.826256 267.215685 
L 323.514083 263.339867 
L 324.201911 261.373998 
L 324.889738 256.772882 
L 325.577565 256.428423 
L 326.265393 258.574492 
L 326.95322 266.816925 
L 327.641048 262.021401 
L 328.328875 267.25711 
L 329.016703 263.602826 
L 329.70453 263.817894 
L 330.392357 267.424999 
L 331.080185 255.115623 
L 331.768012 262.541467 
L 332.45584 266.192037 
L 333.143667 262.176407 
L 333.831495 257.366866 
L 334.519322 256.990056 
L 335.207149 260.397795 
L 335.894977 258.102911 
L 336.582804 263.660947 
L 337.270632 256.333022 
L 337.958459 265.996151 
L 338.646287 263.966999 
L 339.334114 264.969205 
L 340.021941 264.911882 
L 340.709769 259.357426 
L 341.397596 260.489078 
L 342.085424 258.322143 
L 342.773251 264.270338 
L 343.461079 271.810639 
L 344.836733 263.321902 
L 345.524561 271.214812 
L 346.212388 260.164058 
L 346.900216 268.922361 
L 347.588043 258.607492 
L 348.275871 268.474488 
L 348.963698 261.043436 
L 349.651525 266.521224 
L 350.339353 260.237278 
L 351.02718 265.712219 
L 351.715008 268.844747 
L 352.402835 257.708419 
L 353.090663 262.903491 
L 353.77849 260.859235 
L 354.466317 269.413426 
L 355.154145 268.806691 
L 355.841972 259.701399 
L 356.5298 269.456818 
L 357.217627 255.965958 
L 357.905455 266.50521 
L 358.593282 260.3933 
L 359.281109 263.194676 
L 359.968937 262.253795 
L 360.656764 264.007789 
L 361.344592 262.79741 
L 362.032419 265.205119 
L 362.720247 275.731931 
L 363.408074 249.934074 
L 364.095901 260.455177 
L 364.783729 269.091394 
L 365.471556 266.064522 
L 366.159384 258.963031 
L 366.847211 258.528603 
L 367.535039 261.108054 
L 368.222866 265.852383 
L 368.910693 257.881897 
L 369.598521 263.773208 
L 370.286348 266.389637 
L 370.974176 264.047701 
L 371.662003 266.582789 
L 372.349831 267.934076 
L 373.037658 267.846714 
L 373.725485 269.549772 
L 374.413313 270.545145 
L 375.10114 264.914055 
L 375.788968 267.46739 
L 376.476795 266.977865 
L 377.164622 264.711985 
L 377.85245 260.377725 
L 378.540277 266.158256 
L 379.228105 261.01976 
L 379.915932 262.766099 
L 380.60376 265.534552 
L 381.291587 263.379491 
L 381.979414 259.808025 
L 382.667242 260.152503 
L 383.355069 259.2115 
L 384.042897 258.081711 
L 384.730724 263.50485 
L 385.418552 259.528953 
L 386.106379 264.765448 
L 386.794206 263.627859 
L 387.482034 263.837067 
L 388.169861 265.251951 
L 388.857689 270.574977 
L 389.545516 260.5135 
L 390.233344 269.712336 
L 390.921171 264.285497 
L 391.608998 253.134073 
L 392.296826 263.185062 
L 392.984653 268.742128 
L 393.672481 265.769326 
L 394.360308 265.214624 
L 395.048136 266.628499 
L 395.735963 271.136877 
L 396.42379 256.680434 
L 397.111618 262.233482 
L 397.799445 257.932344 
L 398.487273 263.289665 
L 398.487273 263.289665 
" style="fill:none;stroke:#1f77b4;stroke-linecap:square;stroke-width:1.5;"/>
   </g>
   <g id="patch_3">
    <path d="M 57.6 307.584 
L 57.6 41.472 
" style="fill:none;stroke:#000000;stroke-linecap:square;stroke-linejoin:miter;stroke-width:0.8;"/>
   </g>
   <g id="patch_4">
    <path d="M 414.72 307.584 
L 414.72 41.472 
" style="fill:none;stroke:#000000;stroke-linecap:square;stroke-linejoin:miter;stroke-width:0.8;"/>
   </g>
   <g id="patch_5">
    <path d="M 57.6 307.584 
L 414.72 307.584 
" style="fill:none;stroke:#000000;stroke-linecap:square;stroke-linejoin:miter;stroke-width:0.8;"/>
   </g>
   <g id="patch_6">
    <path d="M 57.6 41.472 
L 414.72 41.472 
" style="fill:none;stroke:#000000;stroke-linecap:square;stroke-linejoin:miter;stroke-width:0.8;"/>
   </g>
   <g id="text_15">
    <!-- Model Loss -->
    <defs>
     <path d="M 9.8125 72.90625 
L 24.515625 72.90625 
L 43.109375 23.296875 
L 61.8125 72.90625 
L 76.515625 72.90625 
L 76.515625 0 
L 66.890625 0 
L 66.890625 64.015625 
L 48.09375 14.015625 
L 38.1875 14.015625 
L 19.390625 64.015625 
L 19.390625 0 
L 9.8125 0 
z
" id="DejaVuSans-77"/>
     <path d="M 45.40625 46.390625 
L 45.40625 75.984375 
L 54.390625 75.984375 
L 54.390625 0 
L 45.40625 0 
L 45.40625 8.203125 
Q 42.578125 3.328125 38.25 0.953125 
Q 33.9375 -1.421875 27.875 -1.421875 
Q 17.96875 -1.421875 11.734375 6.484375 
Q 5.515625 14.40625 5.515625 27.296875 
Q 5.515625 40.1875 11.734375 48.09375 
Q 17.96875 56 27.875 56 
Q 33.9375 56 38.25 53.625 
Q 42.578125 51.265625 45.40625 46.390625 
z
M 14.796875 27.296875 
Q 14.796875 17.390625 18.875 11.75 
Q 22.953125 6.109375 30.078125 6.109375 
Q 37.203125 6.109375 41.296875 11.75 
Q 45.40625 17.390625 45.40625 27.296875 
Q 45.40625 37.203125 41.296875 42.84375 
Q 37.203125 48.484375 30.078125 48.484375 
Q 22.953125 48.484375 18.875 42.84375 
Q 14.796875 37.203125 14.796875 27.296875 
z
" id="DejaVuSans-100"/>
     <path id="DejaVuSans-32"/>
     <path d="M 9.8125 72.90625 
L 19.671875 72.90625 
L 19.671875 8.296875 
L 55.171875 8.296875 
L 55.171875 0 
L 9.8125 0 
z
" id="DejaVuSans-76"/>
    </defs>
    <g transform="translate(203.076562 22.034625)scale(0.12 -0.12)">
     <use xlink:href="#DejaVuSans-77"/>
     <use x="86.279297" xlink:href="#DejaVuSans-111"/>
     <use x="147.460938" xlink:href="#DejaVuSans-100"/>
     <use x="210.9375" xlink:href="#DejaVuSans-101"/>
     <use x="272.460938" xlink:href="#DejaVuSans-108"/>
     <use x="300.244141" xlink:href="#DejaVuSans-32"/>
     <use x="332.03125" xlink:href="#DejaVuSans-76"/>
     <use x="385.994141" xlink:href="#DejaVuSans-111"/>
     <use x="447.175781" xlink:href="#DejaVuSans-115"/>
     <use x="499.275391" xlink:href="#DejaVuSans-115"/>
    </g>
    <!-- Final Reward Model Loss: nan -->
    <defs>
     <path d="M 9.8125 72.90625 
L 51.703125 72.90625 
L 51.703125 64.59375 
L 19.671875 64.59375 
L 19.671875 43.109375 
L 48.578125 43.109375 
L 48.578125 34.8125 
L 19.671875 34.8125 
L 19.671875 0 
L 9.8125 0 
z
" id="DejaVuSans-70"/>
     <path d="M 9.421875 54.6875 
L 18.40625 54.6875 
L 18.40625 0 
L 9.421875 0 
z
M 9.421875 75.984375 
L 18.40625 75.984375 
L 18.40625 64.59375 
L 9.421875 64.59375 
z
" id="DejaVuSans-105"/>
     <path d="M 54.890625 33.015625 
L 54.890625 0 
L 45.90625 0 
L 45.90625 32.71875 
Q 45.90625 40.484375 42.875 44.328125 
Q 39.84375 48.1875 33.796875 48.1875 
Q 26.515625 48.1875 22.3125 43.546875 
Q 18.109375 38.921875 18.109375 30.90625 
L 18.109375 0 
L 9.078125 0 
L 9.078125 54.6875 
L 18.109375 54.6875 
L 18.109375 46.1875 
Q 21.34375 51.125 25.703125 53.5625 
Q 30.078125 56 35.796875 56 
Q 45.21875 56 50.046875 50.171875 
Q 54.890625 44.34375 54.890625 33.015625 
z
" id="DejaVuSans-110"/>
     <path d="M 34.28125 27.484375 
Q 23.390625 27.484375 19.1875 25 
Q 14.984375 22.515625 14.984375 16.5 
Q 14.984375 11.71875 18.140625 8.90625 
Q 21.296875 6.109375 26.703125 6.109375 
Q 34.1875 6.109375 38.703125 11.40625 
Q 43.21875 16.703125 43.21875 25.484375 
L 43.21875 27.484375 
z
M 52.203125 31.203125 
L 52.203125 0 
L 43.21875 0 
L 43.21875 8.296875 
Q 40.140625 3.328125 35.546875 0.953125 
Q 30.953125 -1.421875 24.3125 -1.421875 
Q 15.921875 -1.421875 10.953125 3.296875 
Q 6 8.015625 6 15.921875 
Q 6 25.140625 12.171875 29.828125 
Q 18.359375 34.515625 30.609375 34.515625 
L 43.21875 34.515625 
L 43.21875 35.40625 
Q 43.21875 41.609375 39.140625 45 
Q 35.0625 48.390625 27.6875 48.390625 
Q 23 48.390625 18.546875 47.265625 
Q 14.109375 46.140625 10.015625 43.890625 
L 10.015625 52.203125 
Q 14.9375 54.109375 19.578125 55.046875 
Q 24.21875 56 28.609375 56 
Q 40.484375 56 46.34375 49.84375 
Q 52.203125 43.703125 52.203125 31.203125 
z
" id="DejaVuSans-97"/>
     <path d="M 44.390625 34.1875 
Q 47.5625 33.109375 50.5625 29.59375 
Q 53.5625 26.078125 56.59375 19.921875 
L 66.609375 0 
L 56 0 
L 46.6875 18.703125 
Q 43.0625 26.03125 39.671875 28.421875 
Q 36.28125 30.8125 30.421875 30.8125 
L 19.671875 30.8125 
L 19.671875 0 
L 9.8125 0 
L 9.8125 72.90625 
L 32.078125 72.90625 
Q 44.578125 72.90625 50.734375 67.671875 
Q 56.890625 62.453125 56.890625 51.90625 
Q 56.890625 45.015625 53.6875 40.46875 
Q 50.484375 35.9375 44.390625 34.1875 
z
M 19.671875 64.796875 
L 19.671875 38.921875 
L 32.078125 38.921875 
Q 39.203125 38.921875 42.84375 42.21875 
Q 46.484375 45.515625 46.484375 51.90625 
Q 46.484375 58.296875 42.84375 61.546875 
Q 39.203125 64.796875 32.078125 64.796875 
z
" id="DejaVuSans-82"/>
     <path d="M 4.203125 54.6875 
L 13.1875 54.6875 
L 24.421875 12.015625 
L 35.59375 54.6875 
L 46.1875 54.6875 
L 57.421875 12.015625 
L 68.609375 54.6875 
L 77.59375 54.6875 
L 63.28125 0 
L 52.6875 0 
L 40.921875 44.828125 
L 29.109375 0 
L 18.5 0 
z
" id="DejaVuSans-119"/>
     <path d="M 41.109375 46.296875 
Q 39.59375 47.171875 37.8125 47.578125 
Q 36.03125 48 33.890625 48 
Q 26.265625 48 22.1875 43.046875 
Q 18.109375 38.09375 18.109375 28.8125 
L 18.109375 0 
L 9.078125 0 
L 9.078125 54.6875 
L 18.109375 54.6875 
L 18.109375 46.1875 
Q 20.953125 51.171875 25.484375 53.578125 
Q 30.03125 56 36.53125 56 
Q 37.453125 56 38.578125 55.875 
Q 39.703125 55.765625 41.0625 55.515625 
z
" id="DejaVuSans-114"/>
     <path d="M 11.71875 12.40625 
L 22.015625 12.40625 
L 22.015625 0 
L 11.71875 0 
z
M 11.71875 51.703125 
L 22.015625 51.703125 
L 22.015625 39.3125 
L 11.71875 39.3125 
z
" id="DejaVuSans-58"/>
    </defs>
    <g transform="translate(147.878438 35.472)scale(0.12 -0.12)">
     <use xlink:href="#DejaVuSans-70"/>
     <use x="50.269531" xlink:href="#DejaVuSans-105"/>
     <use x="78.052734" xlink:href="#DejaVuSans-110"/>
     <use x="141.431641" xlink:href="#DejaVuSans-97"/>
     <use x="202.710938" xlink:href="#DejaVuSans-108"/>
     <use x="230.494141" xlink:href="#DejaVuSans-32"/>
     <use x="262.28125" xlink:href="#DejaVuSans-82"/>
     <use x="327.263672" xlink:href="#DejaVuSans-101"/>
     <use x="388.787109" xlink:href="#DejaVuSans-119"/>
     <use x="470.574219" xlink:href="#DejaVuSans-97"/>
     <use x="531.853516" xlink:href="#DejaVuSans-114"/>
     <use x="571.216797" xlink:href="#DejaVuSans-100"/>
     <use x="634.693359" xlink:href="#DejaVuSans-32"/>
     <use x="666.480469" xlink:href="#DejaVuSans-77"/>
     <use x="752.759766" xlink:href="#DejaVuSans-111"/>
     <use x="813.941406" xlink:href="#DejaVuSans-100"/>
     <use x="877.417969" xlink:href="#DejaVuSans-101"/>
     <use x="938.941406" xlink:href="#DejaVuSans-108"/>
     <use x="966.724609" xlink:href="#DejaVuSans-32"/>
     <use x="998.511719" xlink:href="#DejaVuSans-76"/>
     <use x="1052.474609" xlink:href="#DejaVuSans-111"/>
     <use x="1113.65625" xlink:href="#DejaVuSans-115"/>
     <use x="1165.755859" xlink:href="#DejaVuSans-115"/>
     <use x="1217.855469" xlink:href="#DejaVuSans-58"/>
     <use x="1251.546875" xlink:href="#DejaVuSans-32"/>
     <use x="1283.333984" xlink:href="#DejaVuSans-110"/>
     <use x="1346.712891" xlink:href="#DejaVuSans-97"/>
     <use x="1407.992188" xlink:href="#DejaVuSans-110"/>
    </g>
   </g>
   <g id="legend_1">
    <g id="patch_7">
     <path d="M 64.6 64.150125 
L 165.546875 64.150125 
Q 167.546875 64.150125 167.546875 62.150125 
L 167.546875 48.472 
Q 167.546875 46.472 165.546875 46.472 
L 64.6 46.472 
Q 62.6 46.472 62.6 48.472 
L 62.6 62.150125 
Q 62.6 64.150125 64.6 64.150125 
z
" style="fill:#ffffff;opacity:0.8;stroke:#cccccc;stroke-linejoin:miter;"/>
    </g>
    <g id="line2d_14">
     <path d="M 66.6 54.570438 
L 86.6 54.570438 
" style="fill:none;stroke:#1f77b4;stroke-linecap:square;stroke-width:1.5;"/>
    </g>
    <g id="line2d_15"/>
    <g id="text_16">
     <!-- reward model -->
     <defs>
      <path d="M 52 44.1875 
Q 55.375 50.25 60.0625 53.125 
Q 64.75 56 71.09375 56 
Q 79.640625 56 84.28125 50.015625 
Q 88.921875 44.046875 88.921875 33.015625 
L 88.921875 0 
L 79.890625 0 
L 79.890625 32.71875 
Q 79.890625 40.578125 77.09375 44.375 
Q 74.3125 48.1875 68.609375 48.1875 
Q 61.625 48.1875 57.5625 43.546875 
Q 53.515625 38.921875 53.515625 30.90625 
L 53.515625 0 
L 44.484375 0 
L 44.484375 32.71875 
Q 44.484375 40.625 41.703125 44.40625 
Q 38.921875 48.1875 33.109375 48.1875 
Q 26.21875 48.1875 22.15625 43.53125 
Q 18.109375 38.875 18.109375 30.90625 
L 18.109375 0 
L 9.078125 0 
L 9.078125 54.6875 
L 18.109375 54.6875 
L 18.109375 46.1875 
Q 21.1875 51.21875 25.484375 53.609375 
Q 29.78125 56 35.6875 56 
Q 41.65625 56 45.828125 52.96875 
Q 50 49.953125 52 44.1875 
z
" id="DejaVuSans-109"/>
     </defs>
     <g transform="translate(94.6 58.070438)scale(0.1 -0.1)">
      <use xlink:href="#DejaVuSans-114"/>
      <use x="38.863281" xlink:href="#DejaVuSans-101"/>
      <use x="100.386719" xlink:href="#DejaVuSans-119"/>
      <use x="182.173828" xlink:href="#DejaVuSans-97"/>
      <use x="243.453125" xlink:href="#DejaVuSans-114"/>
      <use x="282.816406" xlink:href="#DejaVuSans-100"/>
      <use x="346.292969" xlink:href="#DejaVuSans-32"/>
      <use x="378.080078" xlink:href="#DejaVuSans-109"/>
      <use x="475.492188" xlink:href="#DejaVuSans-111"/>
      <use x="536.673828" xlink:href="#DejaVuSans-100"/>
      <use x="600.150391" xlink:href="#DejaVuSans-101"/>
      <use x="661.673828" xlink:href="#DejaVuSans-108"/>
     </g>
    </g>
   </g>
  </g>
 </g>
 <defs>
  <clipPath id="pf6744812af">
   <rect height="266.112" width="357.12" x="57.6" y="41.472"/>
  </clipPath>
 </defs>
</svg>
